<?xml version="1.0" encoding="utf-8"?>
<!-- Generator: Adobe Illustrator 18.1.1, SVG Export Plug-In . SVG Version: 6.00 Build 0)  -->
<svg version="1.1" baseProfile="tiny" id="flow1"
	 xmlns="http://www.w3.org/2000/svg" xmlns:xlink="http://www.w3.org/1999/xlink" x="0px" y="0px" viewBox="0 0 60 60"
	 xml:space="preserve">
<path fill="#45668E" d="M48,36.1c3.7,3.4,4.5,5.1,4.6,5.3c1.5,2.5-1.7,2.7-1.7,2.7l-6.2,0.1c0,0-1.3,0.3-3.1-0.9
	c-2.3-1.6-4.5-5.7-6.2-5.1c-1.7,0.5-1.7,4.2-1.7,4.2s0,0.5-0.4,1c-0.4,0.4-1.3,0.3-1.3,0.3h-2.8c0,0-6.1,0.6-11.4-4.9
	c-5.8-6.1-11-18-11-18s-0.3-0.7,0-1.1c0.4-0.4,1.4-0.4,1.4-0.4h6.6c0,0,0.6,0.1,1.1,0.4c0.4,0.3,0.6,0.8,0.6,0.8s1.1,2.7,2.5,5.1
	c2.7,4.8,4,5.8,5,5.3c1.4-0.7,1-6.7,1-6.7s0-2.2-0.7-3.1c-0.5-0.7-1.6-1-2-1s0.2-0.9,1-1.3c1.2-0.6,3.3-0.6,5.8-0.6
	c1.9,0,2.5,0.1,3.2,0.3c2.3,0.5,1.5,2.7,1.5,7.7c0,1.6-0.3,3.9,0.9,4.7c0.5,0.3,1.7,0.1,4.8-5.2c1.5-2.5,2.6-5.4,2.6-5.4
	s0.2-0.5,0.6-0.7c0.4-0.2,0.9-0.2,0.9-0.2h6.9c0,0,2.1-0.2,2.4,0.7c0.4,1-0.8,3.3-3.6,7.1C44.7,33.1,44.2,32.6,48,36.1z"/>
</svg>
